<?xml version="1.0" standalone="no"?>
<!DOCTYPE svg PUBLIC "-//W3C//DTD SVG 20010904//EN"
 "http://www.w3.org/TR/2001/REC-SVG-20010904/DTD/svg10.dtd">
<svg version="1.0" xmlns="http://www.w3.org/2000/svg"
 width="1080.000000pt" height="1080.000000pt" viewBox="0 0 1080.000000 1080.000000"
 preserveAspectRatio="xMidYMid meet">
<metadata>
Created by potrace 1.14, written by Peter Selinger 2001-2017
</metadata>
<g transform="translate(0.000000,1080.000000) scale(0.100000,-0.100000)"
fill="#000000" stroke="none">
<path d="M5066 9932 c-3 -3 -36 -6 -74 -8 -37 -1 -67 -3 -67 -4 0 -2 -55 -9
-110 -14 -22 -2 -40 -5 -40 -6 0 -1 -9 -3 -20 -4 -125 -17 -221 -35 -380 -72
-53 -13 -71 -17 -85 -19 -8 -1 -23 -5 -32 -9 -9 -4 -25 -9 -35 -11 -10 -2 -18
-4 -18 -5 0 -1 -9 -3 -20 -5 -35 -7 -126 -35 -245 -77 -63 -22 -119 -41 -125
-42 -5 -2 -21 -8 -35 -13 -14 -6 -63 -27 -110 -46 -47 -19 -107 -45 -135 -58
-27 -12 -53 -22 -57 -21 -5 1 -8 -3 -8 -9 0 -6 -7 -9 -15 -5 -8 3 -15 2 -15
-2 0 -4 -20 -16 -45 -26 -25 -11 -45 -23 -45 -28 0 -4 -5 -8 -11 -8 -19 0 -99
-43 -99 -52 0 -5 -4 -7 -9 -3 -5 3 -17 -2 -25 -11 -9 -8 -16 -13 -16 -9 0 5
-48 -23 -60 -35 -3 -3 -19 -12 -35 -21 -82 -44 -100 -54 -105 -60 -3 -3 -25
-18 -50 -34 -68 -41 -123 -79 -138 -93 -8 -7 -27 -19 -43 -27 -16 -9 -29 -19
-29 -24 0 -4 -11 -13 -24 -19 -24 -11 -60 -38 -98 -74 -10 -10 -18 -15 -18
-11 0 4 -8 -2 -19 -13 -25 -25 -60 -54 -67 -54 -2 0 -22 -18 -44 -40 -22 -22
-42 -40 -45 -40 -15 0 -335 -315 -335 -330 0 -6 -4 -9 -9 -5 -6 3 -15 -4 -21
-15 -6 -12 -19 -29 -28 -39 -33 -33 -140 -156 -163 -186 -13 -16 -27 -31 -31
-33 -5 -2 -8 -10 -8 -17 0 -7 -4 -15 -8 -17 -5 -1 -28 -30 -53 -63 -24 -33
-48 -65 -54 -72 -23 -29 -32 -42 -75 -108 -24 -38 -47 -72 -50 -75 -6 -6 -22
-31 -50 -80 -11 -19 -24 -42 -30 -50 -35 -55 -90 -153 -90 -160 0 -5 -6 -15
-12 -22 -11 -11 -132 -245 -134 -258 0 -3 -8 -22 -17 -44 -9 -21 -17 -42 -17
-47 0 -5 -5 -9 -12 -9 -6 0 -8 -3 -5 -6 3 -4 1 -16 -5 -28 -7 -11 -13 -23 -14
-26 0 -3 -4 -14 -9 -25 -4 -11 -23 -58 -40 -105 -18 -47 -36 -94 -40 -105 -5
-11 -9 -24 -9 -30 -1 -5 -7 -20 -14 -32 -7 -13 -10 -23 -6 -23 3 0 1 -7 -6
-15 -7 -9 -10 -18 -7 -21 3 -3 -1 -17 -8 -31 -8 -15 -12 -30 -9 -35 3 -4 1 -8
-5 -8 -5 0 -8 -8 -7 -17 2 -10 -1 -25 -5 -33 -7 -13 -27 -80 -29 -102 -1 -4
-6 -22 -12 -40 -5 -18 -11 -43 -13 -55 -2 -11 -7 -32 -11 -45 -4 -12 -9 -31
-10 -40 -1 -10 -3 -20 -4 -23 -6 -11 -25 -113 -35 -185 -1 -14 -4 -27 -5 -30
-1 -3 -3 -9 -5 -15 -1 -5 -3 -12 -4 -15 -1 -3 -4 -23 -7 -45 -7 -68 -13 -119
-18 -150 -21 -134 -30 -754 -13 -935 13 -140 15 -155 17 -155 3 0 7 -40 12
-97 1 -27 5 -48 8 -48 3 0 7 -15 8 -33 1 -18 5 -44 8 -57 3 -14 8 -41 10 -60
3 -19 10 -53 16 -75 6 -22 12 -49 14 -60 1 -11 8 -38 14 -60 6 -22 12 -52 15
-68 2 -15 7 -32 10 -37 6 -9 9 -22 21 -77 2 -12 8 -33 14 -47 5 -13 6 -27 3
-30 -4 -3 -1 -6 6 -6 7 0 10 -3 7 -8 -2 -4 4 -30 13 -57 24 -68 26 -74 40
-120 7 -22 16 -49 21 -60 37 -85 70 -173 70 -187 0 -10 5 -18 10 -18 6 0 9 -3
8 -7 -1 -8 8 -30 61 -145 11 -26 21 -52 21 -57 0 -6 5 -11 10 -11 6 0 10 -7
10 -16 0 -9 8 -28 19 -42 10 -15 21 -37 25 -49 4 -11 13 -26 21 -33 8 -6 11
-18 8 -26 -3 -8 0 -14 6 -14 6 0 16 -11 21 -25 5 -13 21 -42 34 -64 14 -22 27
-46 28 -53 2 -7 5 -15 8 -18 3 -3 26 -36 49 -75 24 -38 47 -72 51 -75 4 -3 10
-15 14 -27 4 -13 12 -23 17 -23 5 0 9 -5 9 -10 0 -9 71 -114 100 -147 5 -7 10
-15 10 -18 0 -3 8 -13 18 -23 9 -10 24 -29 32 -41 14 -22 28 -39 71 -89 10
-12 19 -26 19 -30 0 -4 8 -14 17 -23 10 -8 36 -37 58 -63 22 -27 67 -77 100
-111 33 -35 78 -83 101 -106 53 -57 206 -202 274 -259 30 -25 64 -54 76 -65
29 -26 49 -42 104 -85 25 -19 50 -39 57 -45 23 -19 38 -30 81 -59 23 -16 42
-33 42 -39 0 -6 3 -8 6 -4 4 3 41 -18 83 -47 103 -71 275 -176 289 -176 7 0
12 -5 12 -11 0 -5 5 -7 10 -4 6 3 10 2 10 -2 0 -9 71 -50 78 -45 3 2 8 0 11
-5 3 -5 29 -19 56 -32 28 -13 58 -30 69 -40 10 -9 20 -15 22 -14 5 3 35 -6 57
-18 51 -27 217 -97 217 -91 0 4 4 3 8 -3 8 -11 69 -36 90 -38 6 0 12 -5 12
-10 0 -6 3 -8 6 -4 4 3 18 0 33 -7 14 -8 37 -16 51 -17 14 -2 31 -9 38 -16 7
-7 19 -10 26 -7 8 3 17 0 21 -5 3 -6 10 -9 15 -6 5 3 11 1 15 -5 3 -5 15 -10
25 -10 10 0 31 -5 47 -12 15 -6 37 -13 48 -15 26 -6 36 -9 55 -15 69 -25 220
-59 230 -53 6 3 10 1 10 -5 0 -6 10 -10 23 -9 12 2 27 0 33 -4 10 -6 48 -13
109 -21 11 -1 29 -5 40 -8 11 -4 43 -9 70 -13 28 -3 64 -8 80 -11 103 -18 330
-35 482 -37 62 -1 113 -4 113 -7 0 -3 26 -3 59 0 32 3 104 5 160 5 55 0 101 2
101 5 0 3 17 5 38 6 45 1 197 13 232 18 60 10 127 19 148 19 12 1 22 4 22 7 0
3 12 5 28 5 15 -1 31 1 37 4 5 3 16 6 25 7 8 1 30 4 48 8 17 3 44 8 60 11 15
2 42 9 60 14 17 5 32 8 32 6 0 -3 12 0 26 6 15 5 43 12 62 15 19 3 45 10 58
14 12 5 25 6 28 3 3 -4 6 -2 6 4 0 6 12 11 26 11 15 0 29 4 33 9 3 5 13 8 21
8 8 -1 30 5 48 12 17 7 32 10 32 7 0 -4 6 -2 12 3 14 11 111 39 117 34 2 -1 7
2 10 8 4 6 18 13 31 15 14 2 26 5 28 7 1 1 5 2 10 4 4 1 21 8 37 15 35 15 40
17 59 19 8 0 22 8 30 17 9 8 20 12 26 9 5 -3 10 -1 10 5 0 6 4 9 8 6 4 -2 21
2 37 9 219 103 268 125 275 125 5 0 10 3 12 8 2 4 21 16 43 27 36 17 159 84
203 110 96 56 119 70 129 79 6 6 34 25 63 41 28 17 63 40 78 53 15 12 39 28
55 35 15 6 27 15 27 18 0 4 16 16 35 28 34 20 226 171 255 201 8 8 44 40 80
70 74 63 332 320 402 401 25 30 54 64 65 75 10 12 32 39 48 60 17 20 35 42 40
49 6 6 26 31 45 55 19 25 38 47 42 48 4 2 8 10 8 17 0 8 11 26 25 40 14 14 23
25 20 25 -4 0 6 17 23 38 43 55 114 162 107 162 -3 0 3 9 13 20 11 12 28 38
38 58 11 20 22 39 25 42 10 8 43 75 41 83 -1 4 2 7 6 7 5 0 29 39 53 87 24 49
47 90 52 91 4 2 7 12 7 22 0 9 7 23 15 30 8 7 12 16 9 21 -3 5 0 9 5 9 6 0 10
3 9 8 -1 4 12 37 30 75 17 37 32 71 33 75 0 4 6 16 12 27 6 11 12 22 12 25 0
3 6 15 13 26 6 12 8 24 5 28 -3 3 0 6 7 6 7 0 10 3 7 7 -4 3 -2 11 3 18 5 6
11 20 13 31 2 10 11 34 20 52 10 17 15 32 13 32 -2 0 6 27 19 60 13 33 21 60
18 60 -3 0 0 6 6 14 6 8 11 18 10 22 -1 5 1 18 5 29 24 62 76 246 81 285 2 14
4 26 6 28 1 1 2 5 4 10 9 34 15 61 19 82 3 14 12 61 20 105 8 44 18 95 21 113
3 17 7 44 10 60 2 15 7 45 9 67 3 22 8 56 11 76 16 100 35 397 34 549 0 142
-12 391 -23 465 -7 52 -17 131 -21 175 -2 19 -4 35 -5 35 -1 0 -3 14 -5 30 -1
17 -3 30 -4 30 -4 0 -11 40 -13 82 -2 24 -5 43 -8 43 -3 0 -7 10 -8 23 -3 25
-10 62 -12 62 -1 0 -3 9 -5 20 -2 19 -12 69 -20 105 -2 8 -4 16 -5 18 -2 1 -3
10 -5 20 -3 27 -16 75 -26 97 -5 11 -11 31 -13 45 -3 14 -5 25 -6 25 -2 0 -11
38 -12 53 -1 6 -4 12 -8 12 -5 0 -9 18 -12 58 -1 6 -4 12 -8 12 -3 0 -12 24
-19 53 -8 28 -18 61 -24 72 -6 11 -10 23 -9 27 1 4 -9 32 -23 62 -14 30 -25
58 -25 61 0 8 -11 33 -69 162 -22 50 -41 96 -41 102 0 6 -5 11 -12 11 -6 0 -9
3 -6 6 8 7 -111 239 -179 349 -7 11 -16 28 -19 38 -3 9 -10 17 -15 17 -5 0 -9
5 -9 11 0 5 -18 37 -40 69 -22 32 -40 63 -40 69 0 5 -3 11 -7 13 -5 2 -33 39
-62 83 -30 44 -59 82 -63 83 -4 2 -8 10 -8 18 0 8 -4 14 -10 14 -5 0 -10 5
-10 10 0 6 -8 18 -17 28 -30 31 -63 72 -63 78 0 2 -10 15 -22 28 -13 13 -30
32 -38 42 -74 91 -151 177 -247 274 -62 63 -113 118 -113 122 0 4 -4 8 -10 8
-5 0 -34 24 -64 53 -71 68 -146 133 -226 195 -36 28 -72 58 -81 67 -9 8 -21
15 -27 15 -7 0 -12 4 -12 10 0 5 -20 21 -45 36 -25 14 -45 30 -45 35 0 5 -7 9
-15 9 -8 0 -15 5 -15 10 0 6 -7 10 -15 10 -8 0 -15 5 -15 10 0 6 -7 10 -15 10
-8 0 -15 4 -15 8 0 5 -12 15 -27 23 -28 14 -83 49 -93 59 -3 3 -22 14 -42 25
-21 11 -38 23 -38 27 0 5 -3 7 -7 6 -9 -3 -99 48 -125 70 -10 8 -18 12 -18 7
0 -4 -6 -3 -12 3 -7 5 -53 31 -103 57 -49 27 -97 52 -105 56 -8 5 -37 18 -65
30 -27 12 -68 29 -90 39 -68 30 -120 52 -130 54 -5 1 -20 8 -32 14 -13 7 -23
9 -23 5 0 -4 -4 -3 -8 2 -6 9 -53 30 -87 39 -5 2 -17 6 -25 9 -21 8 -124 41
-130 42 -3 0 -10 3 -16 7 -6 4 -30 10 -52 14 -23 4 -42 11 -42 17 0 6 -3 8 -6
4 -3 -3 -26 0 -50 8 -24 7 -44 11 -44 10 0 -2 -16 3 -35 11 -19 8 -35 12 -35
10 0 -3 -18 1 -39 9 -22 7 -42 11 -44 8 -3 -3 -12 -1 -19 3 -7 4 -22 9 -33 11
-32 5 -60 11 -60 13 0 3 -25 7 -140 26 -11 1 -31 5 -44 8 -12 3 -44 8 -70 11
-25 4 -59 8 -76 11 -47 6 -115 14 -175 20 -75 8 -758 13 -764 6z m486 -197 c5
-6 8 -5 8 3 0 7 4 11 8 8 5 -3 60 -8 123 -11 63 -4 128 -8 144 -10 133 -15
172 -20 185 -25 3 -1 9 -2 13 -1 5 1 36 -4 70 -10 71 -13 90 -16 132 -22 17
-3 41 -8 55 -11 14 -3 36 -8 50 -11 38 -7 180 -41 230 -55 25 -7 46 -12 47
-11 2 0 27 -7 55 -18 29 -10 80 -26 113 -36 33 -10 65 -22 70 -26 6 -4 22 -10
35 -12 14 -2 41 -11 60 -19 44 -19 74 -31 80 -32 3 -1 14 -7 25 -13 11 -6 22
-11 25 -11 11 -1 60 -22 164 -71 59 -28 112 -51 117 -51 5 0 9 -5 9 -10 0 -6
3 -9 8 -9 14 3 92 -34 92 -43 0 -5 5 -6 10 -3 6 3 10 1 10 -6 0 -7 3 -10 6 -6
4 3 13 -1 21 -9 8 -8 19 -12 24 -9 5 4 9 2 9 -3 0 -5 13 -15 30 -22 16 -7 39
-21 51 -31 12 -10 26 -16 30 -13 5 3 9 1 9 -5 0 -5 9 -13 20 -16 11 -3 26 -12
32 -19 7 -6 31 -23 53 -36 41 -24 206 -139 238 -166 9 -7 21 -14 26 -14 5 0
11 -3 13 -7 2 -5 32 -30 67 -58 35 -27 76 -62 92 -77 16 -15 29 -26 29 -24 0
8 253 -225 289 -267 9 -10 43 -47 76 -82 33 -34 79 -84 102 -111 23 -27 51
-60 63 -74 12 -14 34 -40 48 -59 15 -19 35 -43 45 -53 9 -10 15 -18 11 -18 -3
0 9 -15 25 -32 17 -18 31 -37 31 -41 0 -5 6 -14 13 -22 23 -24 43 -51 50 -65
7 -15 68 -105 87 -127 5 -7 10 -15 10 -18 0 -4 14 -26 30 -50 16 -24 30 -48
30 -54 0 -6 4 -11 9 -11 5 0 14 -15 22 -32 7 -18 16 -35 19 -38 7 -5 10 -10
80 -147 25 -48 48 -90 53 -91 4 -2 5 -8 1 -13 -3 -5 -1 -9 3 -9 5 0 15 -17 22
-37 8 -21 17 -40 20 -43 3 -3 11 -18 17 -35 7 -16 35 -88 64 -160 29 -71 56
-139 60 -150 14 -36 40 -110 40 -117 1 -4 7 -23 16 -43 8 -19 12 -35 9 -35 -4
0 -3 -6 2 -12 4 -7 8 -16 9 -20 1 -5 2 -9 4 -10 1 -2 3 -10 5 -18 1 -8 9 -35
16 -60 7 -25 13 -48 15 -52 1 -5 2 -9 4 -10 1 -2 4 -16 6 -33 3 -16 9 -41 14
-55 5 -14 10 -38 12 -55 1 -16 5 -35 9 -40 4 -6 10 -28 12 -50 3 -22 8 -51 11
-65 3 -14 8 -38 10 -55 3 -16 8 -43 11 -60 13 -76 24 -169 19 -176 -2 -4 -1
-10 4 -13 4 -3 8 -28 8 -55 -1 -28 1 -51 4 -51 6 0 6 -11 14 -228 3 -84 8
-157 11 -163 4 -5 1 -9 -5 -9 -8 0 -8 -6 0 -20 6 -11 7 -20 2 -20 -4 0 -8 -11
-8 -25 0 -14 4 -25 9 -25 4 0 5 -5 2 -11 -4 -5 -9 -52 -11 -102 -5 -96 -9
-161 -19 -262 -4 -33 -7 -72 -8 -87 -1 -16 -4 -28 -7 -28 -3 0 -6 -17 -6 -38
-2 -58 -8 -102 -14 -102 -3 0 -6 -12 -7 -27 -3 -62 -8 -93 -16 -93 -5 0 -6 -4
-3 -8 4 -7 0 -32 -20 -114 -2 -10 -6 -26 -8 -37 -2 -10 -9 -35 -14 -54 -6 -20
-7 -38 -4 -41 3 -3 0 -6 -6 -6 -6 0 -9 -9 -7 -20 2 -11 0 -20 -4 -20 -4 0 -8
-7 -9 -15 -1 -8 -3 -22 -4 -31 -1 -9 -30 -100 -65 -202 -35 -103 -64 -193 -65
-199 -1 -7 -5 -13 -10 -13 -4 0 -8 -7 -8 -15 0 -8 -4 -23 -9 -33 -5 -9 -17
-37 -27 -62 -10 -25 -21 -47 -24 -50 -3 -3 -6 -10 -7 -17 -5 -22 -76 -168 -85
-174 -5 -3 -9 -10 -8 -15 1 -9 -51 -115 -61 -124 -3 -3 -12 -20 -20 -38 -8
-17 -17 -32 -20 -32 -4 0 -10 -11 -13 -25 -4 -14 -11 -25 -16 -25 -6 0 -10 -6
-10 -13 0 -7 -6 -19 -12 -25 -7 -7 -13 -16 -13 -20 -1 -15 -175 -277 -206
-310 -10 -12 -19 -26 -19 -31 0 -6 -6 -14 -13 -18 -7 -4 -28 -29 -47 -55 -18
-27 -37 -48 -42 -48 -4 0 -8 -4 -8 -10 0 -9 -18 -33 -65 -85 -11 -13 -42 -49
-70 -81 -67 -78 -285 -295 -370 -369 -39 -33 -76 -66 -83 -73 -8 -7 -30 -25
-50 -40 -21 -15 -39 -29 -42 -32 -17 -18 -110 -91 -110 -86 0 2 -15 -8 -32
-25 -18 -16 -38 -29 -44 -29 -7 0 -15 -7 -18 -16 -3 -8 -10 -12 -16 -9 -5 3
-10 2 -10 -3 0 -9 -76 -62 -90 -62 -5 0 -10 -4 -12 -8 -4 -11 -204 -132 -217
-132 -6 0 -11 -3 -11 -7 0 -5 -10 -13 -23 -19 -83 -40 -187 -97 -192 -105 -4
-5 -10 -7 -15 -4 -5 3 -11 1 -15 -5 -4 -6 -11 -8 -16 -5 -5 4 -9 2 -9 -4 0 -8
-26 -21 -50 -26 -3 -1 -25 -11 -50 -24 -25 -12 -54 -24 -64 -26 -11 -3 -23
-10 -28 -17 -4 -7 -8 -9 -8 -4 0 5 -6 4 -12 -2 -7 -6 -16 -11 -20 -11 -14 -2
-42 -13 -77 -28 -18 -8 -39 -16 -45 -17 -6 -1 -15 -4 -21 -7 -8 -5 -76 -30
-95 -34 -3 -1 -12 -4 -20 -8 -21 -8 -92 -30 -110 -34 -27 -6 -45 -11 -47 -13
-2 -2 -6 -3 -10 -4 -5 -2 -28 -8 -53 -15 -25 -7 -49 -14 -55 -15 -5 -1 -16 -5
-23 -10 -7 -4 -16 -6 -19 -3 -2 3 -22 -1 -44 -8 -21 -8 -39 -12 -39 -8 0 3 -6
1 -12 -4 -7 -6 -21 -9 -30 -8 -10 2 -18 -1 -18 -6 0 -6 -3 -8 -8 -5 -4 2 -33
-2 -65 -9 -31 -7 -57 -11 -57 -8 0 3 -6 0 -13 -6 -8 -6 -16 -8 -19 -6 -3 3
-27 1 -54 -5 -27 -7 -67 -13 -89 -15 -22 -2 -58 -7 -80 -10 -63 -9 -166 -18
-217 -19 -27 -1 -48 -4 -48 -7 0 -8 -585 -3 -665 6 -33 3 -76 8 -95 10 -19 1
-35 4 -35 5 0 1 -19 3 -42 5 -61 6 -114 13 -143 20 -14 3 -38 8 -55 10 -51 6
-109 16 -127 21 -10 3 -30 8 -45 11 -45 8 -58 11 -58 14 0 1 -9 3 -20 4 -11 1
-56 12 -100 25 -44 12 -84 23 -90 24 -46 12 -79 21 -135 39 -36 12 -68 20 -72
19 -5 -1 -8 2 -8 7 0 5 -18 12 -40 16 -22 4 -42 11 -46 16 -3 5 -9 7 -14 4 -4
-3 -13 2 -20 10 -7 8 -16 13 -20 10 -7 -4 -31 5 -130 47 -14 6 -38 17 -55 24
-110 47 -218 97 -225 104 -3 3 -40 23 -83 45 -130 67 -160 84 -167 96 -4 6
-10 10 -14 10 -7 -2 -45 19 -91 49 -16 11 -40 24 -52 30 -13 5 -23 14 -23 20
0 6 -5 8 -10 5 -6 -3 -10 -1 -10 4 0 6 -5 11 -12 11 -6 0 -44 25 -84 55 -40
30 -76 55 -79 55 -7 0 -158 121 -167 135 -4 5 -8 7 -8 3 0 -4 -16 7 -35 25
-19 17 -53 48 -76 67 -49 42 -256 238 -278 263 -9 10 -43 47 -76 82 -33 35
-71 78 -85 95 -14 17 -37 44 -52 60 -16 16 -28 31 -28 34 0 3 -9 16 -19 28
-38 45 -56 67 -76 94 -11 15 -26 33 -33 40 -6 7 -12 16 -12 21 0 4 -10 19 -23
33 -12 14 -35 45 -52 70 -16 25 -33 47 -37 48 -5 2 -8 9 -8 16 0 7 -9 21 -20
31 -11 10 -18 21 -15 25 2 3 -7 18 -21 33 -14 15 -22 27 -18 27 4 0 0 8 -8 18
-8 9 -26 37 -39 62 -13 25 -26 47 -29 50 -17 17 -135 252 -132 263 1 4 -2 7
-8 7 -5 0 -10 4 -10 10 0 9 -37 93 -81 184 -10 22 -19 48 -19 58 0 10 -4 18
-10 18 -5 0 -10 5 -10 12 0 6 -13 45 -29 87 -42 110 -44 114 -48 136 -1 11 -7
29 -13 40 -15 32 -59 185 -53 185 3 0 1 6 -5 12 -6 7 -14 31 -18 53 -4 22 -12
43 -18 47 -7 5 -7 8 3 8 10 0 10 5 -3 25 -11 16 -12 25 -5 25 8 0 9 4 0 13 -6
8 -8 17 -4 20 3 4 1 7 -4 7 -6 0 -10 8 -8 18 1 9 -2 27 -6 40 -5 12 -10 37
-11 55 -1 18 -4 37 -7 42 -3 6 -7 21 -8 35 -4 32 -10 65 -12 65 -1 0 -4 20 -6
45 -2 25 -7 61 -10 80 -10 62 -16 104 -19 151 -1 25 -6 51 -10 57 -4 7 -3 12
3 12 6 0 7 11 2 28 -4 15 -7 60 -7 99 1 40 -1 73 -4 73 -15 0 6 574 23 655 4
18 15 95 22 165 2 14 4 25 5 25 1 0 3 11 6 25 2 14 7 41 10 60 4 19 8 42 9 50
1 14 10 61 19 105 2 11 9 40 16 65 14 58 21 91 23 113 1 9 5 17 10 17 4 0 5 5
2 10 -4 6 -1 17 5 25 7 8 10 15 6 15 -3 0 1 17 9 38 8 20 17 48 19 62 3 14 5
26 7 28 1 1 2 5 4 10 1 4 4 14 8 22 19 50 35 110 29 110 -4 0 -2 4 3 8 11 7
47 98 48 120 0 6 4 12 8 12 4 0 10 12 14 27 3 15 18 53 32 83 14 30 26 60 27
65 2 6 16 38 33 73 17 34 30 62 28 62 -2 0 13 30 34 68 20 37 43 82 50 100 7
17 17 32 21 32 5 0 11 14 15 30 4 17 10 30 14 30 9 0 35 51 33 63 -1 4 2 7 7
7 5 0 11 8 15 18 5 16 19 40 39 66 9 14 162 237 196 289 13 20 28 37 33 37 4
0 8 5 8 11 0 6 6 16 13 24 15 16 33 39 70 88 16 21 38 48 50 60 12 13 47 52
77 87 69 81 263 275 360 360 40 36 84 75 97 88 12 13 23 20 23 17 0 -3 8 3 18
13 24 22 49 41 92 72 19 14 42 32 52 40 30 27 47 40 53 40 3 0 39 25 79 55 41
30 86 60 100 67 14 6 26 15 26 20 0 4 5 8 10 8 11 0 71 39 81 53 3 5 9 7 12 5
4 -1 15 5 26 14 11 9 22 14 25 11 3 -4 6 -1 6 5 0 7 9 12 20 12 11 0 20 4 20
8 0 8 51 36 59 32 2 -1 7 3 10 8 3 5 38 24 76 43 39 19 73 39 77 44 4 6 8 6 8
1 0 -5 8 -2 18 7 9 8 26 17 37 19 11 1 23 7 26 11 3 5 12 9 20 11 8 1 24 7 35
14 12 6 24 8 28 5 3 -3 6 -1 6 5 0 10 25 22 43 21 4 0 24 9 45 19 49 26 178
76 277 108 44 14 87 28 95 31 8 3 21 7 28 9 7 1 36 10 65 19 28 9 59 17 67 19
8 1 34 8 56 14 37 11 93 24 159 37 143 28 177 35 183 34 4 -1 9 0 12 1 21 8
174 31 210 31 8 1 22 3 30 6 15 5 63 9 218 17 46 2 85 6 87 8 9 8 321 2 327
-7z"/>
<path d="M5889 8763 c-29 -7 -46 -55 -44 -125 1 -65 0 -68 -26 -77 -15 -5 -30
-7 -33 -4 -3 4 -6 1 -6 -6 0 -7 -4 -10 -9 -7 -8 5 -17 -20 -27 -71 -2 -14 43
-62 60 -64 6 -1 18 -2 26 -3 11 -1 15 -16 15 -63 0 -37 -4 -63 -10 -63 -7 0
-7 -3 0 -8 12 -8 14 -131 3 -148 -4 -6 -5 -14 -1 -18 11 -11 10 -216 -1 -216
-6 0 -5 -5 2 -12 7 -7 12 -25 12 -40 0 -15 5 -28 10 -28 6 0 10 -8 10 -18 0
-25 64 -82 95 -84 14 -1 25 -5 25 -9 0 -8 86 -4 127 6 72 17 116 90 117 192 1
84 -17 113 -69 113 -51 0 -75 -27 -78 -82 -1 -27 -6 -48 -10 -48 -5 0 -6 -4
-2 -9 6 -10 -11 -24 -32 -27 -6 -1 -15 5 -19 14 -13 28 -13 542 0 544 6 0 16
2 21 3 6 2 17 3 26 4 16 1 61 35 60 45 -1 3 -1 9 0 14 4 27 -6 59 -24 74 -21
19 -25 20 -68 20 -26 1 -26 1 -26 81 -1 72 -3 82 -26 103 -25 23 -57 28 -98
17z"/>
<path d="M4652 8703 c-29 -15 -52 -33 -52 -40 0 -8 -4 -12 -9 -9 -5 3 -12 -4
-16 -17 -4 -12 -8 -24 -9 -27 -14 -34 -25 -95 -24 -136 1 -28 -2 -56 -6 -62
-4 -7 -2 -12 5 -12 8 0 9 -3 0 -13 -6 -8 -8 -16 -5 -20 5 -5 8 -87 4 -112 -1
-9 -1 -52 1 -150 0 -22 0 -44 -1 -50 -1 -9 -1 -96 1 -190 0 -22 0 -44 -1 -50
-9 -44 16 -102 48 -111 48 -14 71 -10 97 13 29 28 27 14 29 180 0 72 4 135 8
139 15 14 100 10 107 -6 4 -8 6 -74 5 -147 -2 -130 -1 -131 25 -161 18 -20 36
-29 52 -27 13 1 32 3 41 4 10 0 26 13 35 28 16 25 18 62 19 418 1 214 -1 395
-4 400 -4 6 -8 19 -9 30 -15 95 -101 155 -222 155 -53 0 -78 -6 -119 -27z
m170 -165 c8 -14 9 -25 11 -206 2 -137 5 -132 -73 -129 l-45 2 2 150 c1 163 3
175 21 198 10 12 20 13 44 6 18 -5 35 -14 40 -21z"/>
<path d="M5330 8579 c-69 -29 -112 -83 -126 -158 -4 -20 -8 -227 -8 -461 -1
-326 2 -431 12 -452 24 -49 100 -57 138 -13 17 20 20 37 20 109 -1 70 2 86 14
87 44 3 76 6 80 8 3 1 16 4 29 7 53 10 118 70 122 111 0 5 5 14 11 21 6 6 7
12 3 12 -4 0 -3 6 2 13 8 11 9 500 1 568 -6 42 -56 112 -96 133 -43 22 -164
31 -202 15z m118 -157 c17 -17 18 -40 18 -286 -1 -287 -1 -285 -53 -286 -42 0
-46 29 -46 297 0 177 3 256 11 266 7 8 9 17 5 20 -3 4 6 7 20 7 15 0 35 -8 45
-18z"/>
<path d="M2748 8103 c-16 -10 -28 -23 -28 -30 0 -7 -4 -13 -10 -13 -6 0 -10
-911 -10 -2673 0 -2507 1 -2674 17 -2697 21 -30 45 -56 50 -52 2 1 4 2 6 1 1
-1 16 -2 32 -3 39 -3 81 18 102 51 17 25 18 92 20 1048 1 561 2 1022 2 1025 1
4 775 5 879 1 14 -1 21 -5 16 -12 -5 -9 -8 -196 -3 -226 1 -4 1 -12 0 -18 -4
-33 0 -1498 4 -1505 3 -5 2 -11 -3 -14 -4 -3 -5 -30 -2 -60 3 -31 2 -60 -3
-65 -5 -5 -4 -12 2 -15 8 -5 8 -13 1 -27 -6 -11 -8 -25 -4 -31 5 -7 7 -24 6
-38 -1 -14 7 -40 18 -58 22 -36 80 -68 91 -50 4 7 8 7 10 -1 3 -7 18 -4 45 9
32 16 44 29 53 59 8 28 11 316 11 1047 l0 1009 252 -2 c139 -1 260 -2 268 -2
13 -1 15 -122 15 -1028 0 -809 3 -1027 13 -1031 6 -2 12 -10 12 -17 0 -13 34
-39 52 -40 3 0 9 -3 13 -7 9 -9 51 0 85 17 57 29 55 -13 55 1166 l0 1086 -27
35 c-19 25 -38 38 -63 42 -20 4 -180 7 -356 7 l-319 0 0 373 c0 290 3 375 13
378 10 3 2697 2 2718 -1 4 -1 7 -169 7 -375 l-1 -375 -303 0 c-167 0 -308 -2
-314 -6 -5 -3 -10 -3 -10 0 0 3 -14 -2 -31 -12 -63 -37 -59 31 -59 -1162 0
-1218 -5 -1137 70 -1163 57 -20 83 -14 125 26 l30 29 2 1026 c1 564 2 1028 2
1031 1 4 455 5 483 1 3 -1 6 -457 6 -1013 0 -557 2 -1020 3 -1028 6 -21 65
-80 84 -81 8 -1 21 -2 28 -3 21 -4 81 31 97 56 13 20 15 155 16 1042 1 682 5
1020 12 1025 5 3 216 6 469 5 l458 -1 1 -1009 c0 -555 4 -1022 8 -1038 7 -30
50 -75 74 -77 44 -5 60 -3 85 9 15 8 35 26 45 40 16 24 17 193 18 2687 1 1719
-3 2667 -9 2680 -40 82 -164 86 -207 7 -13 -24 -15 -214 -14 -1549 l0 -1522
-468 1 -468 0 -1 32 c-6 237 -2 716 6 717 6 0 117 2 248 2 199 2 239 4 247 17
5 8 10 11 10 6 0 -5 10 3 21 18 43 54 30 134 -28 171 -27 18 -107 19 -2088 20
-1133 0 -2073 -3 -2090 -7 -16 -4 -40 -20 -53 -35 -12 -16 -26 -32 -30 -38
-11 -12 1 -74 19 -103 28 -44 59 -49 289 -48 212 2 268 -4 254 -25 -5 -9 -8
-208 -3 -235 1 -5 1 -13 0 -19 -5 -23 -1 -217 4 -225 3 -5 2 -11 -3 -14 -4 -3
-5 -30 -2 -61 3 -31 3 -58 -2 -61 -4 -3 -4 -13 2 -23 6 -12 5 -22 -1 -28 -8
-8 -8 -17 0 -31 9 -17 8 -22 -7 -26 -9 -3 -207 -5 -439 -5 -232 0 -427 -2
-433 -6 -5 -3 -10 2 -11 12 0 10 -2 698 -3 1528 -1 831 -6 1519 -11 1530 -25
58 -112 83 -167 48z"/>
<path d="M6450 7900 c0 -5 -8 -8 -17 -7 -23 1 -71 -30 -77 -51 -12 -39 -14
-72 -5 -78 5 -3 7 -9 5 -13 -7 -11 32 -51 60 -61 14 -6 35 -8 47 -6 12 3 26 5
30 5 4 1 21 15 37 31 28 28 36 50 30 75 -2 6 -3 17 -4 25 -3 28 -31 57 -69 73
-20 9 -37 12 -37 7z"/>
<path d="M3944 6721 c-2 -2 -17 -5 -33 -6 -16 -1 -38 -11 -50 -22 -23 -21 -55
-103 -41 -103 6 0 10 -7 10 -15 0 -28 31 -64 63 -74 20 -7 238 -10 592 -10
l560 0 33 22 c36 25 58 80 48 121 -8 34 -49 77 -75 79 -12 1 -21 4 -21 7 0 7
-119 4 -126 -3 -3 -3 -13 -3 -21 0 -23 9 -65 9 -90 1 -12 -4 -25 -3 -28 2 -3
6 -15 6 -29 0 -13 -5 -26 -6 -29 -3 -8 8 -152 7 -165 0 -6 -4 -13 -3 -17 2 -3
7 -15 7 -30 1 -13 -5 -26 -6 -29 -2 -4 7 -97 6 -149 -1 -15 -2 -30 -1 -33 4
-2 5 -15 4 -28 -1 -13 -5 -26 -6 -29 -4 -5 5 -101 8 -122 4 -5 -1 -14 -1 -20
0 -18 4 -137 5 -141 1z"/>
<path d="M5970 6720 c0 -3 -10 -10 -22 -15 -33 -14 -67 -83 -57 -116 12 -45
28 -68 58 -83 24 -13 115 -15 602 -13 557 2 575 3 601 22 24 17 34 41 44 93 7
41 -38 98 -85 107 -9 2 -18 4 -21 5 -7 3 -104 2 -110 0 -3 -2 -9 -1 -15 0 -21
5 -136 3 -141 -3 -3 -3 -16 -3 -28 1 -24 9 -66 8 -90 -1 -8 -3 -18 -2 -21 3
-3 6 -15 6 -29 0 -13 -5 -26 -6 -29 -3 -8 8 -152 7 -165 0 -6 -4 -13 -3 -17 2
-3 7 -15 7 -30 1 -13 -5 -26 -6 -29 -2 -4 7 -97 6 -149 -1 -15 -2 -30 -1 -33
4 -2 5 -15 4 -28 -1 -13 -5 -26 -6 -29 -4 -7 7 -177 10 -177 4z"/>
<path d="M5100 2478 c-71 -19 -123 -81 -138 -162 -7 -41 -7 -322 0 -361 13
-70 46 -118 100 -146 38 -20 145 -32 154 -17 15 24 25 -10 20 -70 -5 -73 -19
-92 -67 -92 -31 0 -48 17 -55 57 -8 47 -26 73 -58 81 -38 10 -82 -10 -92 -41
-35 -109 29 -222 136 -243 56 -10 114 -11 126 -2 7 5 16 8 20 7 15 -4 58 18
84 42 29 27 56 80 65 124 8 42 8 601 0 650 -14 81 -73 156 -136 171 -43 10
-123 11 -159 2z m127 -171 c4 -6 8 -77 9 -157 2 -180 -13 -221 -74 -199 -24 9
-44 49 -41 83 1 12 0 26 -1 31 -4 23 -1 147 4 152 3 4 2 11 -3 17 -14 18 11
79 38 93 26 12 52 5 68 -20z"/>
<path d="M5543 2455 c-35 -30 -39 -77 -9 -112 23 -27 28 -28 123 -30 119 -1
115 -1 109 -11 -3 -5 -8 -22 -10 -38 -3 -16 -8 -39 -11 -51 -7 -33 -14 -64
-21 -98 -3 -16 -14 -66 -24 -110 -11 -44 -21 -91 -24 -105 -2 -14 -10 -50 -16
-80 -6 -30 -14 -66 -16 -80 -3 -14 -10 -43 -15 -65 -19 -72 -21 -148 -5 -169
18 -23 74 -36 102 -24 22 10 43 39 50 69 2 11 6 29 9 42 3 12 7 36 10 52 2 17
14 68 25 115 11 47 23 101 26 120 9 48 12 65 14 65 1 0 3 11 6 25 2 14 13 66
24 115 11 50 23 104 26 120 2 17 7 38 10 47 34 112 28 195 -15 214 -9 4 -90 8
-180 9 -154 2 -165 0 -188 -20z"/>
</g>
</svg>
